<?xml version="1.0" encoding="UTF-8" standalone="no"?>
<!-- Created with Inkscape (http://www.inkscape.org/) -->

<svg
   version="1.1"
   id="svg1781"
   width="348.45178"
   height="348.46313"
   viewBox="0 0 348.45178 348.46313"
   xmlns="http://www.w3.org/2000/svg"
   xmlns:svg="http://www.w3.org/2000/svg">
  <defs
     id="defs1785">
    <clipPath
       clipPathUnits="userSpaceOnUse"
       id="clipPath1797">
      <path
         d="M 0,792 H 612 V 0 H 0 Z"
         id="path1795" />
    </clipPath>
  </defs>
  <g
     id="g1789"
     transform="matrix(1.3333333,0,0,-1.3333333,-233.69366,702.31118)">
    <g
       id="g1791">
      <g
         id="g1793"
         clip-path="url(#clipPath1797)">
        <g
           id="g1799"
           transform="translate(217.0567,307.1766)">
          <path
             d="m 0,0 3.097,-3.012 3.182,-2.843 3.267,-2.758 c 48.828,-39.646 119.072,-37.23 165.123,5.601 l 3.098,3.012 3.012,3.097 c 43.936,47.233 45.2,119.723 2.842,168.391 l -2.842,3.182 -3.012,3.097 -3.097,3.012 -3.182,2.842 c -47.359,41.274 -117.85,41.274 -165.209,0 L 3.097,180.779 0,177.767 C -45.566,132.109 -49.285,59.613 -8.613,9.546 l 2.758,-3.267 2.843,-3.182 z"
             fill="param(fill) #fff" stroke="param(outline) #000" stroke-width="param(outline-width) 1"
             id="path1801" />
        </g>
      </g>
    </g>
    <text
       xml:space="preserve"
       transform="scale(1.0009443,-0.99905658)"
       style="font-variant:normal;font-weight:normal;font-stretch:normal;font-size:148.908px;font-family:'Myriad Pro';-inkscape-font-specification:MyriadPro-Regular;writing-mode:lr-tb;fill:#231f20;fill-opacity:1;fill-rule:nonzero;stroke:none;stroke-width:0.999057"
       id="text1805"
       x="204.21129"
       y="-345.17191"><tspan
         x="204.21129 277.62326 309.19193"
         y="-345.17191"
         id="tspan1803"
         style="stroke-width:0.999057">S S</tspan></text>
  </g>
</svg>
