<?xml version="1.0" encoding="UTF-8" standalone="no"?>
<!-- Created with Inkscape (http://www.inkscape.org/) -->

<svg
   version="1.1"
   id="svg1820"
   width="348.85205"
   height="348.85266"
   viewBox="0 0 348.85205 348.85266"
   xmlns="http://www.w3.org/2000/svg"
   xmlns:svg="http://www.w3.org/2000/svg">
  <defs
     id="defs1824">
    <clipPath
       clipPathUnits="userSpaceOnUse"
       id="clipPath1836">
      <path
         d="M 0,792 H 612 V 0 H 0 Z"
         id="path1834" />
    </clipPath>
  </defs>
  <g
     id="g1828"
     transform="matrix(1.3333333,0,0,-1.3333333,-233.49397,702.50601)">
    <g
       id="g1830">
      <g
         id="g1832"
         clip-path="url(#clipPath1836)">
        <g
           id="g1838"
           transform="translate(431.76,396.06)">
          <path
             d="M 0,0 -0.06,4.32 -0.3,8.58 -0.66,12.84 C -7.186,75.508 -58.547,123.451 -121.5,125.76 l -4.32,0.06 -4.32,-0.06 C -194.718,123.391 -246.839,73.058 -251.34,8.58 l -0.24,-4.26 -0.06,-4.32 0.06,-4.32 0.24,-4.26 c 4.368,-62.817 54.123,-112.572 116.94,-116.94 l 4.26,-0.24 4.32,-0.06 c 64.638,0.117 118.46,48.683 125.16,112.98 l 0.36,4.26 0.24,4.26 z"
             fill="param(fill) #fff" stroke="param(outline) #000" stroke-width="param(outline-width) 1"
             id="path1840" />
        </g>
        <g
           id="g1842"
           transform="translate(216.96,307.08)">
          <path
             d="M 0,0 177.96,177.9"
             fill="param(fill) #fff" stroke="param(outline) #000" stroke-width="param(outline-width) 1"
             id="path1844" />
        </g>
        <g
           id="g1846"
           transform="translate(394.92,307.08)">
          <path
             d="M 0,0 -177.96,177.9"
             fill="param(fill) #fff" stroke="param(outline) #000" stroke-width="param(outline-width) 1"
             id="path1848" />
        </g>
      </g>
    </g>
  </g>
</svg>
